<svg xmlns="http://www.w3.org/2000/svg" viewBox="0 0 1200 630">
  <defs>
    <linearGradient id="bg" x1="0" y1="0" x2="1" y2="1">
      <stop offset="0" stop-color="#23233A"/>
      <stop offset="1" stop-color="#14141F"/>
    </linearGradient>
  </defs>
  <rect width="1200" height="630" fill="url(#bg)"/>

  <!-- Tarot card -->
  <g transform="translate(120,95)">
    <rect x="8" y="12" width="270" height="428" rx="22" fill="#000" opacity="0.35"/>
    <rect x="0" y="0" width="270" height="440" rx="22" fill="#F2F2F7"/>
    <rect x="18" y="18" width="234" height="404" rx="12" fill="none" stroke="#9A7B1E" stroke-width="5"/>
    <path d="M135 96 L167 186 L255 191 L185 246 L210 336 L135 284 L60 336 L85 246 L15 191 L103 186 Z" fill="#9A7B1E" transform="translate(0,20) scale(0.92) translate(11,0)"/>
    <circle cx="135" cy="228" r="30" fill="#F2F2F7"/>
    <circle cx="135" cy="228" r="16" fill="#8E2323"/>
  </g>

  <!-- Text -->
  <g font-family="-apple-system, BlinkMacSystemFont, 'SF Pro Display', 'Helvetica Neue', Arial, sans-serif">
    <text x="460" y="230" font-size="28" font-weight="600" letter-spacing="4" fill="#9A7B1E">WARHAMMER 40K · TOURNAMENT</text>
    <text x="460" y="320" font-size="68" font-weight="800" letter-spacing="-1" fill="#F2F2F7">The Emperor's Tarot</text>
    <text x="460" y="400" font-size="36" font-weight="500" fill="#AEAEB2">Málaga Open · 20 players · 2000 pts</text>
    <text x="460" y="452" font-size="36" font-weight="500" fill="#AEAEB2">Matchups · Missions · Maps</text>
  </g>
</svg>
